<svg width="81" height="61" viewBox="0 0 81 61" fill="none" xmlns="http://www.w3.org/2000/svg">
<path d="M25 60.1875L25 53.3438C25.2292 53.3438 27.0417 52.1563 30.4375 49.7813C34.375 47.0313 37.625 44.5208 40.1875 42.25C43.6667 39.1667 45.4062 36.8854 45.4062 35.4063L45.4062 34.4375C40.5312 34.4375 33.7292 34.5417 25 34.75L25 28.875C31.4583 29.1875 38.5833 29.3438 46.375 29.3438C53.7083 29.3438 60.1458 29.1875 65.6875 28.875L65.6875 34.75C60.1458 34.5417 54.5208 34.4375 48.8125 34.4375L48.8125 35.1563C48.8125 36.3021 51.4687 39.1563 56.7812 43.7188C62.0937 48.3021 65.0625 50.5938 65.6875 50.5938L65.6875 57.0938C65.0625 57.0938 62.4792 54.8646 57.9375 50.4063C53.4167 45.9688 50.375 42.6667 48.8125 40.5L48.5 40.5C47.5833 42.8958 43.4479 46.8854 36.0937 52.4688C29.3229 57.6146 25.625 60.1875 25 60.1875Z" fill="black"/>
<path d="M41.8633 59.5391L40.1172 59.3867C39.8281 58.4258 39.6836 57.3789 39.6836 56.2461C39.6836 53.5586 40.418 51.5391 41.8867 50.1875C43.3633 48.8359 45.1641 48.1602 47.2891 48.1602C49.5156 48.1602 51.4336 48.9141 53.043 50.4219C54.6602 51.9297 55.4687 53.957 55.4687 56.5039C55.4687 57.207 55.3633 57.9492 55.1523 58.7305L53.2891 58.4023C53.5703 57.5039 53.7109 56.7031 53.7109 56C53.7109 54.1094 53.125 52.6758 51.9531 51.6992C50.7812 50.7227 49.3477 50.2344 47.6523 50.2344C45.9258 50.2344 44.4453 50.7969 43.2109 51.9219C41.9766 53.0469 41.3594 54.6016 41.3594 56.5859C41.3594 57.3437 41.5273 58.3281 41.8633 59.5391Z" fill="black"/>
<path d="M37.9902 30H34.2813C34.2813 29.2148 33.543 26.748 32.0664 22.5996H21.9238C20.4707 26.6895 19.7442 29.1562 19.7442 30H16.1934C16.1934 29.5664 17.7051 25.8223 20.7285 18.7676C23.752 11.7012 25.2637 7.81641 25.2637 7.11328H29.3418C29.3418 7.80469 30.7832 11.6309 33.666 18.5918C36.5488 25.5527 37.9902 29.3555 37.9902 30ZM31.2578 20.2969C28.5039 13.418 27.127 9.76172 27.127 9.32812H26.9336C26.9336 9.69141 25.5098 13.3477 22.6621 20.2969H31.2578Z" fill="black"/>
<path d="M79.9902 30H76.2812C76.2812 29.2148 75.543 26.748 74.0664 22.5996H63.9238C62.4707 26.6895 61.7441 29.1562 61.7441 30H58.1934C58.1934 29.5664 59.7051 25.8223 62.7285 18.7676C65.752 11.7012 67.2637 7.81641 67.2637 7.11328H71.3418C71.3418 7.80469 72.7832 11.6309 75.666 18.5918C78.5488 25.5527 79.9902 29.3555 79.9902 30ZM73.2578 20.2969C70.5039 13.418 69.127 9.76172 69.127 9.32812H68.9336C68.9336 9.69141 67.5098 13.3477 64.6621 20.2969H73.2578Z" fill="black"/>
<line x1="46" y1="15" x2="46" y2="30" stroke="black" stroke-width="2"/>
<rect x="46" y="17" width="10" height="6" stroke="black" stroke-width="2"/>
</svg>
